<svg id="svg" version="1.1" xmlns="http://www.w3.org/2000/svg" xmlns:xlink="http://www.w3.org/1999/xlink" width="150" height="140" viewBox="140, 125, 120, 150">
<g id="svgg">
<path id="path0" d="M138.727 188.426 C 138.386 189.394,137.964 190.685,137.789 191.296 C 137.614 191.907,137.115 193.324,136.680 194.444 C 136.244 195.565,135.644 197.179,135.345 198.031 C 135.046 198.883,134.294 200.966,133.673 202.661 C 133.051 204.355,132.400 206.157,132.225 206.667 C 132.050 207.176,131.562 208.507,131.139 209.624 C 130.170 212.186,130.177 212.514,131.204 212.659 C 131.724 212.733,132.079 213.075,132.150 213.569 C 132.270 214.414,133.445 214.815,135.803 214.815 C 137.003 214.815,137.124 214.691,138.154 212.395 L 139.240 209.975 143.231 210.080 L 147.222 210.185 147.640 211.481 C 147.870 212.194,148.305 212.827,148.607 212.888 C 148.909 212.948,149.342 213.406,149.570 213.906 C 150.014 214.881,151.748 215.099,154.907 214.577 C 156.766 214.270,156.820 214.510,152.744 204.877 C 150.790 200.259,148.728 195.382,148.161 194.038 C 147.413 192.268,147.227 191.420,147.485 190.960 C 148.002 190.036,147.565 189.259,146.528 189.259 C 145.851 189.259,145.667 189.097,145.792 188.611 C 145.926 188.093,145.513 187.833,143.737 187.315 C 140.037 186.236,139.453 186.366,138.727 188.426 M157.778 199.815 L 157.778 212.963 158.704 212.963 C 159.458 212.963,159.630 213.145,159.630 213.942 L 159.630 214.922 162.443 214.709 C 163.991 214.592,165.315 214.438,165.385 214.368 C 165.529 214.224,166.111 196.168,166.111 191.852 C 166.111 189.276,166.052 189.066,165.301 188.959 C 164.797 188.887,164.446 188.538,164.375 188.035 C 164.241 187.099,163.156 186.777,159.907 186.710 L 157.778 186.667 157.778 199.815 M227.593 187.069 C 226.574 187.235,224.630 187.486,223.273 187.626 C 220.019 187.961,220.011 187.969,220.483 190.261 C 220.793 191.766,221.048 192.213,221.644 192.298 C 222.450 192.413,222.754 196.324,222.912 208.611 L 222.963 212.593 223.889 212.593 C 224.636 212.593,224.815 212.776,224.815 213.543 L 224.815 214.493 231.019 214.376 C 241.744 214.174,245.723 210.664,245.683 201.441 C 245.639 191.343,238.095 185.350,227.593 187.069 M253.527 187.314 C 245.435 190.663,247.991 199.972,257.963 203.470 C 261.868 204.839,261.852 204.830,261.852 205.762 C 261.852 207.713,258.535 209.070,256.062 208.129 C 255.028 207.736,251.852 204.648,251.852 204.035 C 251.852 203.465,251.152 203.668,249.529 204.707 C 248.668 205.259,247.906 205.746,247.836 205.790 C 246.740 206.485,252.136 212.826,254.885 214.074 C 258.578 215.750,265.052 214.884,267.528 212.382 C 272.418 207.441,268.897 199.986,260.370 197.231 C 256.820 196.084,256.667 195.995,256.667 195.065 C 256.667 191.985,261.851 191.905,262.427 194.976 C 262.602 195.907,262.884 196.285,263.463 196.368 C 263.962 196.439,264.303 196.793,264.378 197.315 C 264.482 198.048,264.711 198.148,266.291 198.148 L 268.087 198.148 268.488 196.278 C 269.269 192.637,269.089 191.829,267.083 189.965 C 263.758 186.874,257.532 185.657,253.527 187.314 M144.752 189.400 C 144.729 190.105,146.329 194.383,148.855 200.370 C 151.132 205.769,153.147 210.551,153.333 210.998 C 153.642 211.746,153.541 211.831,152.078 212.050 C 149.163 212.487,148.787 212.283,147.953 209.815 L 147.203 207.593 141.994 207.490 L 136.786 207.388 135.759 209.805 C 134.743 212.195,134.715 212.222,133.280 212.222 C 131.258 212.222,131.228 211.799,132.919 207.181 C 133.732 204.963,135.493 200.065,136.832 196.296 C 138.172 192.528,139.501 188.928,139.787 188.297 L 140.305 187.149 142.547 187.697 C 144.707 188.224,144.787 188.286,144.752 189.400 M162.000 187.592 L 163.815 187.840 163.581 192.531 C 163.452 195.111,163.234 200.501,163.098 204.509 C 162.820 212.623,162.983 212.205,160.093 212.217 L 158.889 212.222 158.889 199.605 C 158.889 187.767,158.929 186.998,159.537 187.166 C 159.894 187.265,161.002 187.456,162.000 187.592 M261.218 187.588 C 262.381 187.891,264.020 188.572,264.859 189.102 L 266.385 190.065 266.134 192.280 C 265.797 195.262,265.644 195.556,264.434 195.556 C 263.561 195.556,263.350 195.362,263.129 194.357 C 262.186 190.066,256.110 188.642,254.233 192.273 C 252.986 194.684,254.161 195.875,259.630 197.744 C 265.303 199.683,267.045 201.403,267.029 205.050 C 267.008 209.617,263.507 212.593,258.155 212.593 C 252.778 212.593,246.751 207.412,249.802 205.413 C 251.019 204.615,251.290 204.655,251.767 205.703 C 253.298 209.063,259.711 210.230,261.832 207.534 C 263.818 205.009,262.185 202.888,256.898 201.126 C 251.687 199.390,250.125 198.020,249.750 194.852 C 249.106 189.415,254.679 185.885,261.218 187.588 M188.608 188.146 C 185.753 189.886,185.145 193.189,187.044 196.633 C 188.432 199.153,188.424 199.234,186.667 200.449 C 182.430 203.379,182.931 209.385,187.593 211.526 C 190.677 212.942,194.850 212.315,198.198 209.933 C 198.693 209.581,199.196 209.762,200.934 210.915 L 203.064 212.329 203.748 211.442 C 204.500 210.467,204.732 210.777,201.002 207.763 C 200.324 207.215,200.321 207.134,200.928 205.726 C 202.940 201.062,203.021 198.994,201.204 198.692 C 200.440 198.565,199.369 198.321,198.825 198.149 C 197.470 197.721,197.103 198.703,198.188 199.857 C 198.847 200.559,198.955 201.012,198.795 202.424 C 198.472 205.294,198.040 205.309,195.351 202.541 C 192.561 199.667,192.569 199.699,194.368 198.591 C 198.672 195.940,198.877 190.080,194.741 187.928 C 193.249 187.152,190.052 187.266,188.608 188.146 M237.288 188.591 C 245.532 192.708,245.252 207.060,236.852 210.980 C 235.170 211.765,234.486 211.845,229.410 211.848 L 223.821 211.852 223.577 205.126 C 223.443 201.426,223.333 196.843,223.333 194.941 C 223.333 191.498,223.329 191.481,222.407 191.481 C 221.898 191.481,221.481 191.336,221.481 191.157 C 221.481 190.979,221.381 190.332,221.259 189.720 L 221.036 188.606 224.129 188.186 C 225.830 187.955,227.722 187.699,228.333 187.618 C 231.064 187.254,235.598 187.747,237.288 188.591 M193.956 190.673 C 195.581 192.770,193.805 197.778,191.436 197.778 C 190.952 197.778,189.267 194.104,189.263 193.037 C 189.251 190.216,192.381 188.640,193.956 190.673 M228.241 190.986 C 227.888 191.128,227.778 193.302,227.778 200.085 L 227.778 208.998 230.562 208.762 C 236.227 208.283,238.683 205.575,238.683 199.808 C 238.683 193.394,233.379 188.913,228.241 190.986 M236.546 194.614 C 239.982 198.530,237.190 206.960,232.195 207.749 L 230.370 208.038 230.370 200.901 C 230.370 192.825,230.185 193.260,233.519 193.521 C 235.291 193.661,235.904 193.882,236.546 194.614 M142.498 194.466 C 142.372 194.760,141.351 197.079,140.229 199.619 C 139.107 202.159,138.247 204.296,138.317 204.367 C 138.798 204.847,145.922 203.535,145.752 202.997 C 144.017 197.537,142.682 194.036,142.498 194.466 M144.351 201.445 C 144.711 202.864,144.697 202.894,143.596 203.114 C 142.117 203.410,142.072 203.315,142.847 201.525 C 143.667 199.633,143.888 199.621,144.351 201.445 M192.984 204.487 C 196.848 208.425,196.600 207.900,195.049 208.859 C 190.362 211.755,185.371 206.642,188.541 202.191 C 189.536 200.794,189.182 200.611,192.984 204.487 " stroke="none" fill="#0ea9f3" fill-rule="evenodd">
</path>
<path id="path1" d="M191.204 187.292 C 191.560 187.386,192.144 187.386,192.500 187.292 C 192.856 187.199,192.565 187.123,191.852 187.123 C 191.139 187.123,190.847 187.199,191.204 187.292 M140.016 188.241 C 139.829 188.699,138.930 191.157,138.017 193.704 C 137.105 196.250,135.281 201.333,133.966 205.000 C 131.640 211.483,131.595 211.673,132.361 211.908 C 133.841 212.360,134.462 212.224,134.784 211.377 C 134.961 210.912,135.475 209.746,135.927 208.785 L 136.748 207.037 141.883 207.037 L 147.018 207.037 147.544 208.056 C 147.834 208.616,148.266 209.800,148.505 210.688 L 148.939 212.301 151.043 212.041 C 152.201 211.898,153.195 211.736,153.251 211.682 C 153.308 211.628,152.692 210.019,151.882 208.107 C 144.684 191.116,144.167 189.793,144.484 189.193 C 144.760 188.671,144.491 188.477,142.812 187.989 C 140.302 187.259,140.419 187.249,140.016 188.241 M158.889 199.857 L 158.889 212.306 160.648 212.044 C 161.616 211.900,162.430 211.756,162.458 211.725 C 162.579 211.587,163.334 193.613,163.334 190.884 L 163.333 187.878 161.615 187.643 C 160.670 187.513,159.670 187.407,159.393 187.407 C 158.978 187.407,158.889 189.605,158.889 199.857 M253.852 188.294 C 251.449 189.413,250.285 191.018,250.079 193.496 C 249.759 197.359,251.301 199.025,256.925 200.892 C 261.901 202.544,263.588 204.185,262.752 206.563 C 261.494 210.139,255.310 210.176,252.178 206.625 C 250.843 205.112,250.832 205.108,249.863 205.743 L 248.889 206.381 249.722 207.870 C 253.770 215.101,266.162 213.377,266.606 205.521 C 266.844 201.306,265.322 199.809,258.540 197.584 C 254.980 196.416,253.704 195.390,253.704 193.696 C 253.704 188.403,261.907 188.803,263.357 194.167 C 264.046 196.715,265.342 196.132,265.827 193.056 L 266.221 190.556 265.079 189.583 C 262.462 187.355,257.174 186.747,253.852 188.294 M224.749 188.293 C 223.186 188.519,221.791 188.821,221.649 188.964 C 221.121 189.500,221.851 191.059,222.686 191.178 C 223.515 191.296,223.520 191.336,223.747 200.000 C 223.872 204.787,223.997 209.428,224.025 210.313 L 224.074 211.921 229.352 211.755 C 239.310 211.441,243.273 207.727,242.883 199.074 C 242.458 189.675,237.125 186.504,224.749 188.293 M197.675 189.981 C 197.566 190.400,197.610 190.659,197.774 190.558 C 198.179 190.307,198.520 191.299,198.513 192.715 C 198.507 194.316,198.132 195.589,197.740 195.347 C 197.562 195.237,197.504 195.375,197.611 195.654 C 197.850 196.278,196.371 198.238,195.887 197.939 C 195.695 197.820,195.583 197.943,195.639 198.213 C 195.695 198.483,195.461 198.706,195.119 198.708 C 194.777 198.711,194.360 198.863,194.193 199.046 C 194.016 199.239,194.106 199.252,194.409 199.076 C 194.763 198.871,194.843 198.914,194.659 199.212 C 194.510 199.452,194.162 199.603,193.885 199.547 C 193.608 199.491,193.371 199.569,193.358 199.722 C 193.344 199.875,193.458 200.014,193.611 200.031 C 194.190 200.097,194.842 200.878,194.676 201.308 C 194.506 201.753,197.342 204.815,197.925 204.815 C 198.093 204.815,197.837 204.487,197.356 204.086 C 196.796 203.620,196.669 203.354,197.002 203.346 C 197.394 203.336,197.349 203.142,196.822 202.559 C 196.134 201.800,196.134 201.775,196.829 201.267 C 197.456 200.809,197.480 200.643,197.041 199.822 C 196.297 198.432,197.006 197.063,198.339 197.318 C 199.057 197.455,199.192 197.593,198.830 197.822 C 198.557 197.995,198.500 198.137,198.704 198.137 C 199.810 198.137,200.741 196.528,200.741 194.617 C 200.741 192.135,198.140 188.203,197.675 189.981 M190.830 190.370 C 190.893 190.783,190.276 191.837,190.054 191.700 C 189.922 191.619,189.815 192.270,189.815 193.148 C 189.815 194.026,189.922 194.678,190.054 194.596 C 190.410 194.376,190.781 195.561,190.500 196.017 C 190.345 196.267,190.435 196.300,190.746 196.108 C 191.114 195.880,191.170 195.979,190.969 196.502 C 190.822 196.886,190.820 197.081,190.965 196.936 C 191.110 196.792,191.461 196.867,191.746 197.103 C 192.031 197.339,192.235 197.380,192.199 197.192 C 191.927 195.759,192.315 193.611,192.963 192.963 C 193.768 192.158,193.923 191.290,193.327 190.922 C 193.120 190.794,193.021 190.576,193.107 190.437 C 193.192 190.299,192.709 190.185,192.033 190.185 C 191.356 190.185,190.815 190.269,190.830 190.370 M235.743 192.013 C 240.140 195.367,239.992 204.701,235.495 207.677 C 234.226 208.517,233.638 208.642,230.818 208.671 L 227.593 208.704 227.493 200.193 C 227.438 195.512,227.482 191.450,227.591 191.167 C 227.988 190.133,234.112 190.769,235.743 192.013 M144.611 198.834 C 146.224 203.643,146.234 203.705,145.437 203.854 C 144.126 204.099,137.971 204.747,137.868 204.651 C 137.776 204.566,142.044 194.663,142.465 193.981 C 142.785 193.463,142.888 193.695,144.611 198.834 M203.328 200.278 C 203.323 200.837,203.268 200.849,202.933 200.370 C 202.629 199.937,202.596 199.999,202.781 200.656 C 203.067 201.670,202.657 203.787,202.227 203.521 C 202.058 203.417,202.015 203.692,202.130 204.131 C 202.272 204.675,202.203 204.847,201.914 204.668 C 201.631 204.493,201.571 204.616,201.734 205.042 C 201.876 205.411,201.828 205.584,201.620 205.456 C 201.158 205.170,201.191 206.683,201.663 207.407 C 201.863 207.713,202.028 208.074,202.031 208.210 C 202.034 208.346,202.189 208.596,202.374 208.765 C 202.574 208.948,202.587 208.860,202.406 208.548 C 202.182 208.162,202.257 208.082,202.690 208.248 C 203.655 208.619,204.869 205.843,205.366 202.129 C 205.587 200.475,205.543 200.347,204.628 199.999 C 203.356 199.516,203.334 199.520,203.328 200.278 M196.655 203.056 C 196.674 203.512,196.471 203.384,195.528 202.345 L 194.630 201.356 195.637 202.067 C 196.190 202.458,196.649 202.903,196.655 203.056 M189.070 202.599 C 188.942 202.806,188.719 202.902,188.574 202.812 C 188.430 202.723,188.349 203.512,188.395 204.566 C 188.509 207.162,188.640 208.105,188.876 208.043 C 188.985 208.014,189.439 208.193,189.884 208.440 C 190.660 208.871,190.686 208.836,190.489 207.625 C 190.363 206.848,190.502 205.924,190.850 205.226 C 191.608 203.706,189.923 201.219,189.070 202.599 M192.778 204.815 C 193.573 205.630,194.308 206.296,194.410 206.296 C 194.511 206.296,193.944 205.630,193.148 204.815 C 192.353 204.000,191.618 203.333,191.516 203.333 C 191.414 203.333,191.982 204.000,192.778 204.815 M183.419 205.556 C 183.419 206.269,183.495 206.560,183.589 206.204 C 183.682 205.847,183.682 205.264,183.589 204.907 C 183.495 204.551,183.419 204.843,183.419 205.556 M197.898 210.093 C 197.736 210.347,197.597 210.722,197.589 210.926 C 197.581 211.130,197.289 211.273,196.939 211.246 C 196.580 211.217,196.409 211.364,196.546 211.586 C 196.698 211.833,196.553 211.887,196.153 211.734 C 195.802 211.599,195.611 211.642,195.727 211.829 C 196.021 212.305,194.613 212.690,193.611 212.408 C 192.959 212.225,192.898 212.258,193.333 212.563 C 193.748 212.853,193.325 212.952,191.667 212.952 C 190.081 212.952,189.603 212.847,190.000 212.587 C 190.399 212.326,190.231 212.285,189.403 212.444 C 188.665 212.585,187.818 212.441,187.047 212.042 C 185.253 211.115,185.784 212.147,187.806 213.519 C 190.885 215.607,196.653 215.322,200.017 212.916 C 200.465 212.596,201.011 212.766,202.527 213.698 C 204.806 215.101,205.802 215.010,206.807 213.310 C 207.484 212.163,207.483 212.133,206.725 211.375 C 205.913 210.564,204.420 210.219,204.655 210.898 C 204.885 211.562,203.458 212.988,202.812 212.740 C 202.490 212.616,202.335 212.340,202.467 212.126 C 202.606 211.902,202.530 211.847,202.287 211.997 C 201.777 212.312,200.272 211.569,200.541 211.134 C 200.647 210.964,200.443 210.847,200.089 210.875 C 199.734 210.903,199.480 210.735,199.524 210.501 C 199.573 210.240,199.301 210.155,198.818 210.282 C 198.282 210.422,198.116 210.351,198.297 210.058 C 198.443 209.823,198.479 209.630,198.377 209.630 C 198.275 209.630,198.060 209.838,197.898 210.093 " stroke="none" fill="#042d74" fill-rule="evenodd">
</path>
<path id="path2" d="M187.716 187.580 C 184.611 189.690,183.905 193.326,185.898 196.941 L 186.968 198.881 185.507 200.038 C 182.731 202.237,181.867 205.616,183.293 208.704 C 183.911 210.043,185.926 212.353,185.926 211.722 C 185.926 211.579,186.431 211.723,187.047 212.042 C 189.798 213.465,194.530 213.099,197.248 211.255 C 198.485 210.415,198.772 210.352,199.429 210.769 C 199.845 211.034,200.905 211.656,201.785 212.153 L 203.384 213.055 203.946 212.253 C 204.255 211.813,204.824 211.157,205.211 210.797 C 205.896 210.158,205.875 210.118,204.404 209.237 C 201.241 207.343,200.940 206.960,201.606 205.673 C 202.368 204.199,203.778 198.939,203.522 198.524 C 203.414 198.349,202.785 198.090,202.125 197.949 C 201.466 197.808,200.718 197.524,200.463 197.319 C 200.145 197.063,200.000 197.079,200.000 197.369 C 200.000 197.802,198.245 197.565,197.677 197.055 C 197.519 196.913,197.644 196.190,197.954 195.448 C 198.833 193.345,198.533 190.536,197.215 188.519 C 195.878 186.472,190.176 185.909,187.716 187.580 M193.889 187.444 C 199.086 188.857,199.473 195.518,194.554 198.889 C 193.117 199.873,193.208 200.133,195.912 202.777 C 198.050 204.869,198.503 204.727,198.513 201.965 C 198.517 200.804,198.323 200.275,197.742 199.869 C 195.585 198.357,197.491 197.451,200.847 198.393 L 203.039 199.008 202.803 200.479 C 202.674 201.289,202.232 202.887,201.822 204.031 C 201.412 205.175,200.989 206.374,200.882 206.695 C 200.751 207.090,201.359 207.785,202.762 208.845 L 204.837 210.411 204.052 211.512 L 203.268 212.613 201.912 211.799 C 201.166 211.351,200.146 210.698,199.644 210.348 C 198.768 209.735,198.690 209.744,197.582 210.589 C 191.662 215.104,182.271 211.148,183.490 204.651 C 183.782 203.095,185.547 200.636,186.980 199.789 L 188.079 199.140 186.817 196.762 C 183.701 190.888,187.610 185.737,193.889 187.444 M190.602 190.476 C 189.511 191.274,189.412 193.742,190.392 195.705 C 191.393 197.708,191.480 197.729,193.029 196.345 C 195.947 193.738,193.670 188.232,190.602 190.476 M193.259 190.815 C 194.185 191.740,192.822 197.037,191.659 197.037 C 191.265 197.037,190.000 194.004,190.000 193.060 C 190.000 190.968,192.020 189.576,193.259 190.815 M196.950 198.078 C 196.631 198.925,196.688 199.318,197.258 200.187 C 197.962 201.262,198.008 202.472,197.370 203.135 C 197.154 203.360,196.418 202.828,195.379 201.696 L 193.730 199.900 195.161 198.864 C 195.949 198.293,196.703 197.649,196.837 197.432 C 197.288 196.701,197.346 197.029,196.950 198.078 M188.514 202.685 C 185.779 207.172,191.054 211.578,195.302 208.356 C 195.926 207.883,195.745 207.613,192.822 204.663 C 189.189 200.998,189.466 201.125,188.514 202.685 M190.631 203.184 C 191.574 204.546,194.111 207.222,194.460 207.222 C 195.322 207.222,195.055 207.755,193.925 208.291 C 190.769 209.789,187.750 207.784,188.276 204.539 C 188.657 202.195,189.579 201.664,190.631 203.184 " stroke="none" fill="#040a11" fill-rule="evenodd"></path><path id="path3" d="M231.019 187.669 C 231.477 187.757,232.227 187.757,232.685 187.669 C 233.144 187.581,232.769 187.508,231.852 187.508 C 230.935 187.508,230.560 187.581,231.019 187.669 M163.427 189.074 C 163.431 189.889,163.507 190.179,163.595 189.718 C 163.684 189.257,163.681 188.591,163.588 188.236 C 163.495 187.882,163.423 188.259,163.427 189.074 M257.135 190.266 C 257.698 190.351,258.531 190.349,258.987 190.261 C 259.442 190.173,258.981 190.103,257.963 190.106 C 256.944 190.109,256.572 190.181,257.135 190.266 M221.575 190.741 C 221.657 191.046,222.079 191.349,222.513 191.413 C 223.206 191.515,223.317 191.816,223.437 193.914 L 223.573 196.299 223.546 193.802 C 223.522 191.609,223.428 191.287,222.778 191.165 C 222.370 191.088,221.899 190.836,221.731 190.605 C 221.529 190.328,221.476 190.374,221.575 190.741 M227.567 199.815 C 227.567 204.704,227.620 206.652,227.684 204.145 C 227.748 201.638,227.748 197.638,227.684 195.257 C 227.619 192.875,227.567 194.926,227.567 199.815 M163.056 198.704 C 163.060 199.519,163.136 199.808,163.225 199.348 C 163.314 198.887,163.310 198.220,163.217 197.866 C 163.125 197.512,163.052 197.889,163.056 198.704 M266.760 205.000 C 266.764 205.815,266.840 206.105,266.929 205.644 C 267.017 205.183,267.014 204.516,266.921 204.162 C 266.828 203.808,266.756 204.185,266.760 205.000 M162.699 207.593 C 162.701 208.611,162.773 208.984,162.858 208.421 C 162.943 207.858,162.941 207.025,162.853 206.569 C 162.765 206.113,162.696 206.574,162.699 207.593 M223.825 209.074 C 223.827 210.500,223.894 211.038,223.974 210.270 C 224.054 209.501,224.053 208.334,223.971 207.677 C 223.889 207.019,223.824 207.648,223.825 209.074 M139.167 207.312 C 140.644 207.382,143.060 207.382,144.537 207.312 C 146.014 207.242,144.806 207.184,141.852 207.184 C 138.898 207.184,137.690 207.242,139.167 207.312 M191.023 212.484 C 191.484 212.573,192.150 212.569,192.504 212.477 C 192.858 212.384,192.481 212.312,191.667 212.316 C 190.852 212.320,190.562 212.396,191.023 212.484 M257.315 212.484 C 257.773 212.572,258.523 212.572,258.981 212.484 C 259.440 212.395,259.065 212.323,258.148 212.323 C 257.231 212.323,256.856 212.395,257.315 212.484 " stroke="none" fill="#0a61a3" fill-rule="evenodd">
</path>
<path id="path4" d="M257.315 187.298 C 257.773 187.387,258.523 187.387,258.981 187.298 C 259.440 187.210,259.065 187.138,258.148 187.138 C 257.231 187.138,256.856 187.210,257.315 187.298 M163.444 192.222 C 163.444 193.343,163.514 193.801,163.599 193.241 C 163.683 192.681,163.683 191.764,163.599 191.204 C 163.514 190.644,163.444 191.102,163.444 192.222 M194.530 192.963 C 194.530 193.676,194.607 193.968,194.700 193.611 C 194.793 193.255,194.793 192.671,194.700 192.315 C 194.607 191.958,194.530 192.250,194.530 192.963 M223.467 199.630 C 223.467 201.565,223.529 202.356,223.606 201.389 C 223.682 200.421,223.682 198.838,223.606 197.870 C 223.529 196.903,223.467 197.694,223.467 199.630 M163.056 201.296 C 163.060 202.111,163.136 202.401,163.225 201.940 C 163.314 201.479,163.310 200.813,163.217 200.459 C 163.125 200.105,163.052 200.481,163.056 201.296 M162.686 210.556 C 162.690 211.370,162.766 211.660,162.855 211.199 C 162.943 210.739,162.940 210.072,162.847 209.718 C 162.754 209.364,162.682 209.741,162.686 210.556 " stroke="none" fill="#0b76b8" fill-rule="evenodd">
</path>
</g>
</svg>